<svg t="1621221015737" class="icon" viewBox="0 0 1024 1024" version="1.1"
  xmlns="http://www.w3.org/2000/svg" p-id="16958" width="32" height="32">
  <path d="M622.037333 278.72c7.829333 0 15.744-2.346667 22.890667-6.762667 15.850667-9.749333 25.941333-25.557333 29.205333-45.845333 1.792-15.616 0-28.074667-5.653333-39.189333-7.850667-15.445333-21.952-24.661333-37.738667-24.661334-8.234667 0-16.618667 2.56-24.234666 7.381334-27.818667 17.6-37.461333 60.672-19.84 88.64 8.213333 12.992 21.12 20.437333 35.370666 20.437333z m-1.984-78.976a17.792 17.792 0 0 1 9.472-2.944c6.037333 0 11.285333 3.52 14.442667 9.706667 2.496 4.757333 3.221333 9.984 2.389333 16.810666-1.408 8.832-5.610667 15.466667-12.437333 19.690667a17.002667 17.002667 0 0 1-8.853333 2.645333c-5.354667 0-10.282667-2.88-13.504-7.893333-7.466667-11.776-3.264-30.592 8.490666-38.016z m120.576 252.736c-0.789333-5.632-1.6-11.456-2.666666-17.152-12.693333-66.517333-49.621333-114.133333-109.717334-141.525333-32.704-14.869333-69.738667-22.506667-113.194666-23.338667l-4.522667-0.042667c-32.469333 0-62.122667 7.381333-88.085333 21.952-38.314667 21.418667-59.477333 51.797333-64.704 92.864-7.04 55.701333 5.653333 101.930667 38.805333 141.312a646.186667 646.186667 0 0 1 27.925333 35.541334c18.410667 25.216 23.829333 53.909333 16.085334 85.248-4.650667 18.816-12.224 37.824-23.104 58.112a148.416 148.416 0 0 0-14.869334 42.645333 143.658667 143.658667 0 0 0 0.853334 57.450667c5.781333 26.197333 17.365333 48.128 34.453333 65.216 20.885333 20.8 45.952 31.36 74.474667 31.36 3.669333 0 7.445333-0.170667 11.2-0.512 45.013333-4.117333 80.874667-23.957333 106.581333-58.965334 14.293333-19.370667 26.624-41.130667 37.717333-66.56 25.749333-58.986667 46.506667-121.941333 63.445334-192.469333 10.325333-43.072 13.802667-83.114667 10.581333-122.666667-0.448-2.816-0.853333-5.632-1.258667-8.469333z m-47.637333 141.162667c-14.293333 59.477333-24.277333 93.504-48.981333 150.272a114.197333 114.197333 0 0 0-1.898667 4.757333c-29.312 75.306667-72.021333 115.072-126.890667 118.122667a45.44 45.44 0 0 1-2.410666 0.064c-15.829333 0-33.344-8.896-48.064-24.426667-17.386667-18.368-27.946667-42.688-26.901334-61.973333 2.368-44.202667 13.802667-67.221333 23.893334-87.552 4.8-9.642667 9.322667-18.752 12.565333-29.312 7.424-23.936 8.618667-65.258667-6.336-99.392-5.866667-13.482667-16.704-27.797333-28.181333-42.965334-22.826667-30.165333-48.704-64.362667-46.912-105.152 1.621333-35.285333 6.848-71.36 50.346666-90.837333 22.570667-10.069333 48.448-15.168 76.949334-15.168 39.744 0 76.330667 10.218667 95.573333 18.944 54.848 24.981333 82.474667 67.562667 89.621333 138.133333 4.693333 46.4-3.626667 89.984-12.373333 126.485334z m80.810667-325.76c-6.741333-15.317333-19.946667-24.448-35.349334-24.448-6.976 0-13.845333 1.877333-20.458666 5.589333-26.24 14.762667-37.141333 53.546667-22.421334 79.808 7.168 12.8 19.626667 20.437333 33.28 20.437333 6.613333 0 13.12-1.728 19.349334-5.12 14.976-8.192 24.96-22.101333 28.885333-40.384 2.453333-13.973333 1.408-25.386667-3.285333-35.882666z m-25.813334 30.741333c-1.450667 6.741333-4.949333 11.648-10.368 14.613333a12.672 12.672 0 0 1-6.144 1.664c-4.224 0-7.957333-2.389333-10.282666-6.549333-5.226667-9.301333-1.237333-23.573333 8.042666-28.821333a13.696 13.696 0 0 1 6.656-1.834667c4.714667 0 8.810667 2.901333 10.944 7.786667 1.728 3.861333 2.069333 7.850667 1.152 13.141333z m-271.210666-29.418667c13.184 0 25.749333-5.76 35.392-16.192 14.592-15.808 20.885333-36.458667 18.24-59.861333-2.666667-17.706667-8.512-30.954667-18.410667-41.728-10.24-11.157333-23.381333-17.301333-37.034667-17.301333-13.632 0-26.709333 6.165333-36.778666 17.322666-25.365333 28.202667-22.72 78.933333 5.44 104.362667 9.536 8.661333 21.312 13.397333 33.152 13.397333z m-17.386667-91.285333c4.437333-4.949333 10.112-7.658667 15.957333-7.658667 5.866667 0 11.584 2.730667 16.149334 7.722667 4.714667 5.034667 7.402667 11.178667 8.682666 19.776 1.258667 11.370667-1.6 20.949333-8.512 28.458667a20.736 20.736 0 0 1-15.274666 7.061333c-5.162667 0-10.154667-2.026667-14.4-5.824-13.333333-12.074667-14.592-36.138667-2.602667-49.536z m-63.466667 113.514667c3.946667-17.386667 2.496-34.56-4.608-54.165334-10.389333-25.792-27.712-44.053333-51.541333-54.250666a71.808 71.808 0 0 0-28.266667-5.973334c-29.290667 0-53.44 19.2-61.504 48.938667-12.416 46.058667 16.64 99.136 62.186667 113.578667a71.253333 71.253333 0 0 0 21.354667 3.370666c30.378667-0.021333 55.445333-20.714667 62.378666-51.498666z m-34.730666-14.762667c-2.986667 16.213333-15.616 27.114667-31.466667 27.114667-3.264 0-6.485333-0.448-9.621333-1.322667-24.021333-6.613333-40.810667-34.730667-35.221334-58.944 3.605333-15.637333 15.765333-25.749333 31.018667-25.749333 4.522667 0.021333 9.024 0.896 13.248 2.538666 12.906667 4.970667 22.506667 14.357333 28.48 27.776 4.181333 10.24 5.312 19.306667 3.562667 28.586667z" fill="#404040" p-id="16959"></path>
</svg>