<svg t="1621220612380" class="icon" viewBox="0 0 1024 1024" version="1.1"
  xmlns="http://www.w3.org/2000/svg" p-id="1897" width="32" height="32">
  <path d="M700.667 128a96.001 96.001 0 0 1 78.505 40.746l2.733 4.104 135.997 215.994c22.525 35.776 18.916 81.878-8.384 113.667l-3.255 3.603-355.596 374.312c-20.288 21.355-54.045 22.22-75.4 1.933l-1.934-1.933-355.596-374.312c-29.119-30.651-34.641-76.563-14.122-113.098l2.483-4.172L242.095 172.85a96.001 96.001 0 0 1 76.309-44.724l4.929-0.126h377.334z m0 64H323.333a32.001 32.001 0 0 0-25.194 12.27l-1.885 2.68-135.997 215.994c-7.24 11.5-6.38 26.2 1.85 36.736l2.03 2.354L512 828.18l347.863-366.147c8.64-9.094 11.048-22.22 6.649-33.582l-1.242-2.8-1.527-2.708L727.746 206.95a32.001 32.001 0 0 0-23.807-14.783l-3.272-0.167z m-60.445 233.373l45.255 45.254L512 644.104 338.523 470.627l45.255-45.254L512 553.6l128.222-128.227z" p-id="1898"></path>
</svg>