<svg t="1621220134209" class="icon" viewBox="0 0 1024 1024" version="1.1"
  xmlns="http://www.w3.org/2000/svg" p-id="1424" width="32" height="32">
  <path d="M873.52168 497.71514c-23.859767 0-43.269577 19.269812-43.269578 42.95958v387.366217c0.02 2.629974-1.02999 5.14995-2.949971 7.079931-1.939981 1.949981-4.459956 2.999971-7.269929 3.02997H659.273772c-2.709974 0-5.379947-1.089989-7.319929-2.98997-1.879982-1.889982-2.979971-4.549956-2.949971-7.139931V715.873009c0-23.669769-19.399811-42.919581-43.249578-42.919581H418.226126c-23.859767 0-43.269577 19.259812-43.269578 42.919581v212.197928c0.02 2.559975-1.05999 5.179949-2.879972 6.999931-2.00998 1.989981-4.629955 3.07997-7.379927 3.07997H204.008218c-2.689974 0-5.439947-1.129989-7.339929-3.03997-1.859982-1.839982-2.959971-4.489956-2.939971-7.079931V540.67472c0-23.669769-19.389811-42.919581-43.229578-42.919581-23.859767 0-43.269577 19.249812-43.269577 42.919581v387.346217c0 52.919483 43.419576 95.969063 96.789055 95.969063h160.74843c53.399479 0 96.849054-43.04958 96.849054-95.969063V758.842589H562.594716v169.188348c0 52.919483 43.409576 95.969063 96.769055 95.969063h160.73843c53.349479 0 96.749055-43.04958 96.749055-95.969063V540.67472c-0.02-23.689769-19.44981-42.95958-43.329576-42.95958z" fill="#404040" p-id="1425"></path>
  <path d="M1010.590341 436.18574L578.754558 26.419742C560.734734 9.379908 536.924967 0 511.695213 0c-24.849757 0-48.439527 9.379908-66.399352 26.429742L13.460079 436.22574C0.540205 448.375621-3.489756 466.845441 3.180179 483.275281c6.629935 16.33984 22.439781 26.899737 40.289606 26.899737 11.079892 0 21.659788-4.229959 29.799709-11.899884L505.055278 88.489136c1.909981-1.689983 4.399957-2.619974 7.009931-2.619975 2.579975 0 5.059951 0.919991 6.939933 2.559975l431.835782 409.885998c8.029922 7.679925 18.639818 11.899884 29.869709 11.899883 11.869884 0 22.949776-4.689954 31.209695-13.209871 8.019922-8.289919 12.29988-19.199813 12.059882-30.7197-0.249998-11.449888-4.999951-22.139784-13.389869-30.099706zM726.653114 86.209158h144.218591v142.718606c0 11.319889 4.619955 22.389781 12.679877 30.369704 8.039921 7.979922 19.179813 12.549877 30.549701 12.549877 11.359889 0 22.48978-4.569955 30.519702-12.529877 8.099921-7.989922 12.739876-19.079814 12.739876-30.419703V83.059189c0-45.609555-37.419635-82.709192-83.419186-82.709192H726.653114c-23.849767 0-43.249578 19.259812-43.249578 42.93958 0 23.669769 19.399811 42.919581 43.249578 42.919581z" fill="#404040" p-id="1426"></path>
</svg>