<svg t="1621220952113" class="icon" viewBox="0 0 1024 1024" version="1.1"
  xmlns="http://www.w3.org/2000/svg" p-id="15028" width="32" height="32">
  <path d="M585.69216 889.94816H190.976a46.31552 46.31552 0 0 1-36.78208-17.98144 47.72864 47.72864 0 0 1-8.64768-41.1136 381.54752 381.54752 0 0 1 370.82624-290.45248 376.89856 376.89856 0 0 1 175.48288 42.70592 33.72032 33.72032 0 0 0 30.94528-59.904 444.28288 444.28288 0 0 0-71.40864-29.45024 234.40896 234.40896 0 1 0-270.1312-0.06656 448.98816 448.98816 0 0 0-301.00992 320.896 115.01056 115.01056 0 0 0 20.93568 98.97472A113.152 113.152 0 0 0 190.976 957.44h394.69056a33.74592 33.74592 0 0 0 0.0256-67.49184zM349.27104 301.696a167.13216 167.13216 0 1 1 167.12704 167.64928 167.58272 167.58272 0 0 1-167.12704-167.64928z m577.82784 388.06528a33.5616 33.5616 0 0 0-47.56992 0l-152.27904 152.7552-84.736-84.992a33.6896 33.6896 0 0 0-47.56992 47.7184L700.73856 911.36c0.41984 0.42496 0.91648 0.7168 1.3568 1.11616 0.47104 0.512 0.82944 1.13664 1.34144 1.64864a33.55136 33.55136 0 0 0 47.56992 0l176.09216-176.64a33.792 33.792 0 0 0 0-47.72352z" fill="#404040" p-id="15029"></path>
</svg>