<svg t="1621231778154" class="icon" viewBox="0 0 1024 1024" version="1.1"
  xmlns="http://www.w3.org/2000/svg" p-id="26630" width="32" height="32">
  <path d="M289.80868741 834.20653037l-41.99158518-2.62144c-57.41681778-0.44904297-103.98378667-47.29514667-103.98378667-104.80905481V526.06596741h49.90445037v200.71006815c0 30.28005925 24.63668148 54.91674075 54.91674074 54.91674074l1.55344593 0.04854518 42.70762666 2.66998519-3.10689185 49.7952237zM527.09269808 784.3384889l147.68173511-2.6578489 0.89808592 49.89474133-147.68173511 2.6578489z" p-id="26631" fill="#707070"></path>
  <path d="M722.26133333 834.21866667l-71.94396443-3.96856889V326.53312c0-30.28005925-24.63668148-54.91674075-54.91674075-54.91674074l-155.50236445 0.69176889-0.18204444-49.90445037 155.58731852-0.69176888c57.89013333 0 104.90614518 47.01601185 104.90614519 104.8211911v456.4946489l24.79445333 1.37140147-2.74280297 49.8194963z" p-id="26632" fill="#707070"></path>
  <path d="M244.41893926 566.79537778c-134.14248297 0-243.28419555-109.1295763-243.28419556-243.27205925s109.1295763-243.28419555 243.28419556-243.28419556 243.27205925 109.1295763 243.27205927 243.28419556S378.56142223 566.79537778 244.41893926 566.79537778z m0-436.65180445c-106.62949925 0-193.36760889 86.75024592-193.36760889 193.3676089 0 106.62949925 86.75024592 193.36760889 193.36760889 193.36760888 106.62949925 0 193.36760889-86.75024592 193.36760889-193.36760888 0-106.61736297-86.73810963-193.36760889-193.36760889-193.3676089zM961.22500741 834.21866667l-2.74280296-49.83163259 24.78231703-1.37140148V575.2665126l-107.1270874-143.45102223H675.26959408v-49.90445037h213.39249778c7.8764563 0 15.27959703 3.71370667 19.98848 10.02458075l119.56679111 160.11415703a24.97649778 24.97649778 0 0 1 4.96374518 14.92764445v239.66757925c0 13.25283555-10.35226075 24.18763852-23.5808237 24.9158163l-48.37527704 2.65784889zM409.4725689 952.37764741c-78.88592592 0-143.06266075-64.17673482-143.06266075-143.06266074s64.17673482-143.06266075 143.06266075-143.06266074 143.06266075 64.17673482 143.06266073 143.06266074-64.17673482 143.06266075-143.06266073 143.06266074z m0-236.23300741c-51.37294222 0-93.15821037 41.78526815-93.15821037 93.15821037s41.78526815 93.15821037 93.15821037 93.15821038 93.15821037-41.78526815 93.15821036-93.15821038-41.79740445-93.15821037-93.15821036-93.15821037z" p-id="26633" fill="#707070"></path>
  <path d="M841.74317037 952.37764741c-78.88592592 0-143.06266075-64.17673482-143.06266074-143.06266074s64.17673482-143.06266075 143.06266074-143.06266074 143.06266075 64.17673482 143.06266074 143.06266074-64.17673482 143.06266075-143.06266074 143.06266074z m0-236.23300741c-51.37294222 0-93.15821037 41.78526815-93.15821037 93.15821037s41.78526815 93.15821037 93.15821037 93.15821038 93.15821037-41.78526815 93.15821038-93.15821038-41.78526815-93.15821037-93.15821038-93.15821037zM344.76183703 348.4755437h-100.34289777c-13.78683259 0-24.95222518-11.17752889-24.95222518-24.95222517v-101.6050726c0-13.78683259 11.17752889-24.95222518 24.95222518-24.95222518s24.95222518 11.17752889 24.95222519 24.95222518v76.6528474h75.39067258c13.78683259 0 24.95222518 11.17752889 24.9522252 24.9522252s-11.17752889 24.95222518-24.9522252 24.95222517z" p-id="26634" fill="#707070"></path>
</svg>