<svg t="1621231519390" class="icon" viewBox="0 0 1024 1024" version="1.1"
  xmlns="http://www.w3.org/2000/svg" p-id="20615" width="32" height="32">
  <path d="M823.893333 557.226667a158.72 158.72 0 1 1-157.226666 158.72 158.08 158.08 0 0 1 157.226666-158.72z m0 39.68a119.04 119.04 0 1 0 117.973334 119.04A118.613333 118.613333 0 0 0 823.893333 597.333333zM810.666667 149.333333a108.586667 108.586667 0 0 1 104.746666 109.226667v263.466667a19.626667 19.626667 0 0 1-39.253333 1.493333V362.666667H82.133333v341.333333a69.546667 69.546667 0 0 0 62.933334 72.533333h475.52a19.84 19.84 0 0 1 1.493333 39.68H147.413333A108.373333 108.373333 0 0 1 42.666667 707.84V261.546667A109.013333 109.013333 0 0 1 144.64 149.333333H810.666667z m8.96 489.386667a14.72 14.72 0 0 1 14.72 14.72v64H896a14.933333 14.933333 0 1 1 0 29.866667h-76.586667a14.72 14.72 0 0 1-14.72-14.72v-79.146667a14.72 14.72 0 0 1 14.72-14.72z m-448-183.253333a24.96 24.96 0 0 1 0 49.706666H205.653333a24.96 24.96 0 0 1 0-49.706666zM810.666667 189.013333H147.413333a68.906667 68.906667 0 0 0-65.28 69.973334v67.2h793.6v-64a69.76 69.76 0 0 0-62.933333-72.533334z" fill="#7F7F7F" p-id="20616"></path>
  <path d="M823.893333 876.8a160.853333 160.853333 0 1 1 159.573334-160.853333 160.213333 160.213333 0 0 1-159.573334 160.853333z m0-317.44a156.586667 156.586667 0 1 0 155.306667 156.586667 155.946667 155.946667 0 0 0-155.306667-156.586667z m0 277.333333a121.173333 121.173333 0 1 1 120.106667-121.173333 120.96 120.96 0 0 1-120.106667 121.6z m0-238.08a116.906667 116.906667 0 1 0 115.84 116.906667 116.693333 116.693333 0 0 0-115.84-116.48zM147.413333 819.2a109.866667 109.866667 0 0 1-106.666666-111.36V261.546667A110.506667 110.506667 0 0 1 144.64 147.2H810.666667a109.866667 109.866667 0 0 1 106.666666 111.36v263.466667a21.333333 21.333333 0 0 1-42.666666 1.706666v-158.506666H85.333333V704a66.986667 66.986667 0 0 0 61.013334 70.4h474.24a21.333333 21.333333 0 0 1 1.493333 43.946667H147.413333z m0-667.733333h-2.773333a106.666667 106.666667 0 0 0-99.84 110.08v446.293333a106.666667 106.666667 0 0 0 102.613333 106.666667h474.453334a17.493333 17.493333 0 0 0 16.213333-17.706667 17.706667 17.706667 0 0 0-17.493333-17.706667H145.066667a71.253333 71.253333 0 0 1-64-74.666666v-343.466667h797.866666v162.56a17.493333 17.493333 0 0 0 34.986667-1.493333V258.773333A106.666667 106.666667 0 0 0 810.666667 151.466667zM896 749.866667h-76.586667a16.853333 16.853333 0 0 1-16.853333-16.853334v-79.573333a16.853333 16.853333 0 1 1 33.706667 0v62.293333H896a17.066667 17.066667 0 1 1 0 34.133334zM819.413333 640a12.586667 12.586667 0 0 0-12.586666 12.586667v79.573333a12.586667 12.586667 0 0 0 12.586666 12.586667H896a12.8 12.8 0 0 0 0-25.6h-64v-65.706667a12.586667 12.586667 0 0 0-12.586667-13.44z m-448-133.546667H205.653333a27.093333 27.093333 0 0 1 0-53.973333h166.186667a27.093333 27.093333 0 0 1 0 53.973333z m-165.76-48.853333a22.826667 22.826667 0 0 0 0 45.44h166.186667a22.826667 22.826667 0 0 0 0-45.44z m672.213334-129.28H80v-69.333333a70.826667 70.826667 0 0 1 67.413333-72.106667H812.8a71.466667 71.466667 0 0 1 64 74.666667zM85.333333 324.053333h789.333334v-62.506666A66.986667 66.986667 0 0 0 812.586667 192H147.413333a66.346667 66.346667 0 0 0-64 68.053333v64z" fill="#7F7F7F" p-id="20617"></path>
</svg>