<svg t="1621231833465" class="icon" viewBox="0 0 1024 1024" version="1.1"
  xmlns="http://www.w3.org/2000/svg" p-id="29203" width="32" height="32">
  <path d="M537.6 915.2H160c-89.6 0-160-70.4-160-160V249.6c0-89.6 70.4-160 160-160h576c89.6 0 160 70.4 160 160v185.6c0 6.4-6.4 12.8-12.8 12.8s-19.2-6.4-19.2-19.2V249.6c0-70.4-57.6-121.6-121.6-121.6h-576C96 128 44.8 185.6 44.8 249.6v505.6c0 70.4 57.6 121.6 121.6 121.6h377.6c12.8 0 19.2 6.4 19.2 19.2s-12.8 19.2-25.6 19.2z" fill="707070" p-id="29204"></path>
  <path d="M32 262.4h832v38.4H32z" fill="707070" p-id="29205"></path>
  <path d="M364.8 582.4l-83.2-57.6c-6.4-6.4-19.2-6.4-25.6 0l-83.2 57.6-32-12.8V281.6l19.2-19.2h217.6l19.2 19.2v288l-32 12.8zM268.8 486.4c12.8 0 25.6 6.4 32 12.8l57.6 38.4V294.4H179.2v230.4l57.6-38.4h32zM780.8 934.4c-134.4 0-243.2-108.8-243.2-243.2S646.4 448 780.8 448 1024 563.2 1024 697.6s-108.8 236.8-243.2 236.8z m0-448C665.6 486.4 576 582.4 576 697.6s89.6 204.8 204.8 204.8 204.8-89.6 204.8-204.8-89.6-211.2-204.8-211.2z" fill="" p-id="29206"></path>
  <path d="M896 755.2h-76.8c-38.4 0-70.4-32-70.4-70.4V544c0-12.8 6.4-19.2 19.2-19.2s19.2 6.4 19.2 19.2v140.8c0 19.2 12.8 32 32 32H896c12.8 0 19.2 6.4 19.2 19.2s-6.4 19.2-19.2 19.2z" fill="#707070" p-id="29207"></path>
</svg>